<svg xmlns="http://www.w3.org/2000/svg" width="132" height="42" viewBox="0 0 132 42" fill="none">
  <g clip-path="url(#clip0_131_15561)">
    <path d="M69.5668 10.8013C69.5668 12.2788 68.3709 13.469 66.8864 13.469C65.4018 13.469 64.206 12.2788 64.206 10.8013C64.206 9.32382 65.3606 8.13363 66.8864 8.13363C68.4121 8.17467 69.5668 9.36487 69.5668 10.8013ZM58.5152 16.1777C58.5152 16.4239 58.5152 16.8343 58.5152 16.8343C58.5152 16.8343 57.2369 15.1927 54.5152 15.1927C50.0204 15.1927 46.5152 18.5991 46.5152 23.3188C46.5152 27.9975 49.9792 31.4449 54.5152 31.4449C57.2781 31.4449 58.5152 29.7623 58.5152 29.7623V30.46C58.5152 30.7883 58.7627 31.0345 59.0926 31.0345H62.4328V15.6031C62.4328 15.6031 59.3812 15.6031 59.0926 15.6031C58.7627 15.6031 58.5152 15.8904 58.5152 16.1777ZM58.5152 26.0686C57.8967 26.9715 56.6596 27.7513 55.175 27.7513C52.5359 27.7513 50.5152 26.1096 50.5152 23.3188C50.5152 20.528 52.5359 18.8864 55.175 18.8864C56.6183 18.8864 57.9379 19.7072 58.5152 20.5691V26.0686ZM64.907 15.6031H68.8658V31.0345H64.907V15.6031ZM124.041 15.1927C121.319 15.1927 120.041 16.8343 120.041 16.8343V8.17467H116.082V31.0345C116.082 31.0345 119.134 31.0345 119.422 31.0345C119.752 31.0345 120 30.7472 120 30.46V29.7623C120 29.7623 121.278 31.4449 124 31.4449C128.495 31.4449 132 27.9975 132 23.3188C132 18.6401 128.495 15.1927 124.041 15.1927ZM123.381 27.7102C121.855 27.7102 120.66 26.9304 120.041 26.0275V20.528C120.66 19.7072 121.979 18.8453 123.381 18.8453C126.02 18.8453 128.041 20.487 128.041 23.2778C128.041 26.0686 126.02 27.7102 123.381 27.7102ZM114.02 21.8824V31.0756H110.062V22.3338C110.062 19.7893 109.237 18.7633 107.01 18.7633C105.814 18.7633 104.577 19.3789 103.794 20.2818V31.0345H99.8348V15.6031H102.969C103.299 15.6031 103.546 15.8904 103.546 16.1777V16.8343C104.701 15.6441 106.227 15.1927 107.752 15.1927C109.484 15.1927 110.928 15.6852 112.082 16.6702C113.484 17.8193 114.02 19.2968 114.02 21.8824ZM90.2266 15.1927C87.5049 15.1927 86.2266 16.8343 86.2266 16.8343V8.17467H82.2678V31.0345C82.2678 31.0345 85.3194 31.0345 85.608 31.0345C85.9379 31.0345 86.1853 30.7472 86.1853 30.46V29.7623C86.1853 29.7623 87.4637 31.4449 90.1853 31.4449C94.6802 31.4449 98.1853 27.9975 98.1853 23.3188C98.2266 18.6401 94.7214 15.1927 90.2266 15.1927ZM89.5668 27.7102C88.041 27.7102 86.8451 26.9304 86.2266 26.0275V20.528C86.8451 19.7072 88.1647 18.8453 89.5668 18.8453C92.206 18.8453 94.2266 20.487 94.2266 23.2778C94.2266 26.0686 92.206 27.7102 89.5668 27.7102ZM78.8451 15.1927C80.041 15.1927 80.6596 15.3979 80.6596 15.3979V19.0506C80.6596 19.0506 77.3606 17.9424 75.2987 20.2818V31.0756H71.34V15.6031C71.34 15.6031 74.3915 15.6031 74.6802 15.6031C75.0101 15.6031 75.2575 15.8904 75.2575 16.1777V16.8343C75.9998 15.9725 77.608 15.1927 78.8451 15.1927ZM37.7317 29.6391C37.5255 29.1466 37.3194 28.6131 37.1132 28.1617C36.7833 27.4229 36.4534 26.7252 36.1647 26.0686L36.1235 26.0275C33.2781 19.8714 30.2266 13.6331 27.0101 7.47698L26.8864 7.23073C26.5565 6.61511 26.2266 5.95846 25.8967 5.3018C25.4843 4.56306 25.0719 3.78328 24.4121 3.04454C23.0926 1.4029 21.1957 0.5 19.175 0.5C17.1132 0.5 15.2575 1.4029 13.8967 2.96246C13.2781 3.7012 12.8245 4.48098 12.4121 5.21972C12.0822 5.87638 11.7524 6.53303 11.4225 7.14865L11.2987 7.39489C8.12349 13.5511 5.0307 19.7893 2.18534 25.9454L2.1441 26.0275C1.85544 26.6842 1.52555 27.3819 1.19565 28.1206C0.989465 28.5721 0.783279 29.0646 0.577094 29.5981C0.0410114 31.1166 -0.123937 32.5531 0.0822485 34.0305C0.535857 37.1086 2.59771 39.6942 5.44307 40.8433C6.51524 41.2948 7.62864 41.5 8.78328 41.5C9.11318 41.5 9.52555 41.459 9.85544 41.4179C11.2163 41.2538 12.6183 40.8023 13.9792 40.0225C15.6699 39.0786 17.2781 37.7242 19.0926 35.7543C20.907 37.7242 22.5565 39.0786 24.206 40.0225C25.5668 40.8023 26.9688 41.2538 28.3297 41.4179C28.6596 41.459 29.0719 41.5 29.4018 41.5C30.5565 41.5 31.7111 41.2948 32.742 40.8433C35.6286 39.6942 37.6493 37.0676 38.1029 34.0305C38.4328 32.5941 38.2678 31.1577 37.7317 29.6391ZM19.1338 31.7733C16.907 28.9825 15.4637 26.3559 14.9688 24.1396C14.7627 23.1957 14.7214 22.3749 14.8451 21.6361C14.9276 20.9795 15.175 20.4049 15.5049 19.9124C16.2884 18.8043 17.608 18.1066 19.1338 18.1066C20.6596 18.1066 22.0204 18.7633 22.7627 19.9124C23.0926 20.4049 23.34 20.9795 23.4225 21.6361C23.5462 22.3749 23.5049 23.2367 23.2987 24.1396C22.8039 26.3148 21.3606 28.9414 19.1338 31.7733ZM35.5874 33.7022C35.2987 35.8363 33.8554 37.6832 31.8348 38.504C30.8451 38.9144 29.773 39.0375 28.7008 38.9144C27.6699 38.7913 26.639 38.463 25.5668 37.8473C24.0822 37.0265 22.5977 35.7543 20.8658 33.8664C23.5874 30.542 25.2369 27.505 25.8554 24.7963C26.1441 23.524 26.1853 22.3749 26.0616 21.3078C25.8967 20.2818 25.5255 19.3378 24.9482 18.517C23.6699 16.6702 21.5255 15.6031 19.1338 15.6031C16.742 15.6031 14.5977 16.7112 13.3194 18.517C12.742 19.3378 12.3709 20.2818 12.206 21.3078C12.041 22.3749 12.0822 23.5651 12.4121 24.7963C13.0307 27.505 14.7214 30.5831 17.4018 33.9074C15.7111 35.7953 14.1853 37.0676 12.7008 37.8884C11.6286 38.504 10.5977 38.8323 9.56678 38.9555C8.45338 39.0786 7.38122 38.9144 6.43276 38.545C4.41215 37.7242 2.96885 35.8774 2.68019 33.7432C2.55648 32.7172 2.63895 31.6912 3.05132 30.542C3.17503 30.1316 3.38122 29.7212 3.5874 29.2287C3.87606 28.5721 4.20596 27.8744 4.53586 27.1767L4.57709 27.0946C7.42245 20.9795 10.474 14.7412 13.6493 8.66717L13.773 8.42092C14.1029 7.80531 14.4328 7.14865 14.7627 6.53303C15.0926 5.87638 15.4637 5.26076 15.9173 4.72723C16.7833 3.74224 17.9379 3.20871 19.2163 3.20871C20.4946 3.20871 21.6493 3.74224 22.5152 4.72723C22.9688 5.26076 23.34 5.87638 23.6699 6.53303C23.9998 7.14865 24.3297 7.80531 24.6596 8.42092L24.7833 8.66717C27.9173 14.7823 30.9688 21.0205 33.8142 27.1356V27.1767C34.1441 27.8333 34.4328 28.5721 34.7627 29.2287C34.9688 29.7212 35.175 30.1316 35.2987 30.542C35.6286 31.6091 35.7523 32.6351 35.5874 33.7022Z" fill="#878787"/>
  </g>
  <defs>
    <clipPath id="clip0_131_15561">
      <rect width="132" height="41" fill="white" transform="translate(0 0.5)"/>
    </clipPath>
  </defs>
</svg>