<svg xmlns="http://www.w3.org/2000/svg" width="131" height="46" viewBox="0 0 131 46" fill="none">
  <g clip-path="url(#clip0_131_15545)">
    <path d="M86.1691 33.2733H86.1387C80.7322 37.1373 74.3539 41.1853 67.4591 45.448L67.1858 45.6013C67.156 45.6137 67.1293 45.6327 67.1079 45.657C67.0864 45.6812 67.0707 45.7101 67.062 45.7414C67.0532 45.7726 67.0515 45.8055 67.0572 45.8375C67.0628 45.8696 67.0756 45.8999 67.0946 45.9262C67.1135 45.9525 67.1381 45.9741 67.1665 45.9894C67.195 46.0046 67.2265 46.0132 67.2586 46.0144C67.2908 46.0156 67.3229 46.0094 67.3523 45.9963C67.3818 45.9832 67.4079 45.9635 67.4287 45.9387L67.6413 45.816C73.5034 42.7493 80.2159 39.1 86.9588 35.328L87.0803 35.2667C86.6823 34.6504 86.3753 33.9789 86.1691 33.2733ZM121.645 4.26265C113.141 -5.21335 58.2864 3.31198 34.9901 8.46398L34.4433 8.58665C34.3899 8.60056 34.3427 8.63243 34.3096 8.67702C34.2765 8.72162 34.2594 8.77627 34.2611 8.83198C34.2641 8.85968 34.2732 8.88634 34.2879 8.90994C34.3025 8.93355 34.3223 8.95349 34.3457 8.96825C34.3691 8.98302 34.3955 8.99222 34.423 8.99518C34.4504 8.99814 34.4781 8.99476 34.5041 8.98532L35.0508 8.89332C54.3682 5.42798 94.5521 0.613316 103.178 9.26132C105.821 11.8987 105.213 15.3027 102.145 19.32C103.839 20.437 105.037 22.1741 105.486 24.1653C117.423 16.1613 125.442 8.49465 121.645 4.26265Z" fill="#878787"/>
    <path d="M89.6316 30.7894C89.7228 34.132 91.8185 36.8614 94.5521 36.8614C99.8371 36.8614 102.085 30.2987 101.933 25.9134C101.811 22.5707 99.6852 19.8414 96.9516 19.8414C92.3956 19.8414 89.4494 26.3734 89.6316 30.7894ZM86.8373 30.6054C86.6247 24.9014 91.0592 19.0747 97.4679 19.0747C101.781 19.0747 104.575 21.988 104.727 26.404C104.94 32.4147 100.809 37.9347 94.0965 37.9347C89.7835 37.9347 86.9892 35.052 86.8373 30.6054Z" fill="#878787"/>
    <path d="M25.9692 29.1026C25.686 29.2186 25.3904 29.3009 25.0883 29.348L23.0837 29.716C22.5919 29.7513 22.1144 29.898 21.6865 30.1453C21.5635 30.2214 21.4588 30.3241 21.38 30.4461C21.3012 30.5681 21.2503 30.7063 21.2309 30.8506C21.1997 30.9856 21.2123 31.127 21.2671 31.2541C21.3218 31.3812 21.4156 31.487 21.5347 31.556C21.9229 31.7751 22.3673 31.8712 22.8103 31.832C23.2635 31.8229 23.7132 31.7507 24.1468 31.6173C24.5463 31.4992 24.9182 31.3011 25.2402 31.0346C25.4531 30.846 25.6107 30.6021 25.6958 30.3293C25.8432 29.9353 25.9352 29.5224 25.9692 29.1026ZM31.5579 25.6066C31.5275 26.128 31.4364 26.588 31.3149 27.3853L30.3733 32.7213C30.3232 32.9372 30.347 33.1638 30.4407 33.3643C30.5345 33.5647 30.6927 33.7272 30.8896 33.8253V34.04H25.4528V32.6906C24.6275 33.1597 23.7509 33.5302 22.8407 33.7946C21.9992 34.0242 21.1307 34.1377 20.259 34.132C18.4973 34.132 17.495 33.948 16.8268 33.3346C16.1586 32.7213 15.7637 32.292 15.7941 31.4026C15.8594 30.8262 16.0918 30.2821 16.4623 29.8386C16.8577 29.3908 17.3448 29.035 17.8899 28.796C18.5895 28.4968 19.3246 28.2907 20.0767 28.1826C21.0183 28.0293 22.3547 27.876 24.1468 27.7226C24.7538 27.7042 25.3517 27.5689 25.9084 27.324C26.3033 27.1706 26.4248 27.0173 26.4855 26.7106C26.5463 26.404 26.4248 25.852 25.6958 25.6986C23.7519 25.3306 20.1071 25.944 18.224 26.4346L19.2263 23.644C21.6278 23.2596 24.0541 23.0546 26.4855 23.0306C30.3429 23.0306 31.5882 24.1653 31.5579 25.6066Z" fill="#878787"/>
    <path d="M47.2305 34.04L49.1136 23.3373H54.3074L52.4243 34.04H47.2305ZM49.4173 20.884C49.5692 19.9946 50.936 19.2893 52.485 19.2893C54.0341 19.2893 55.1275 19.9946 54.9757 20.884C54.8238 21.7733 53.457 22.4786 51.908 22.4786C50.3589 22.4786 49.2655 21.7426 49.4173 20.884Z" fill="#878787"/>
    <path d="M72.6833 29.1333L71.8025 29.3786L69.7675 29.7466C69.2861 29.7864 68.8194 29.933 68.4007 30.176C68.2784 30.2454 68.1737 30.3425 68.0947 30.4595C68.0156 30.5765 67.9644 30.7104 67.9451 30.8506C67.9087 30.9868 67.9156 31.131 67.9646 31.263C68.0136 31.395 68.1024 31.5082 68.2184 31.5866C68.4918 31.7706 68.917 31.832 69.5245 31.832C69.9762 31.8333 70.426 31.7713 70.8609 31.648C71.2605 31.5299 71.6323 31.3317 71.9543 31.0653C72.1672 30.8767 72.3248 30.6327 72.4099 30.36C72.538 29.9604 72.6295 29.5498 72.6833 29.1333ZM78.272 25.6066C78.2416 26.128 78.1505 26.6186 78.029 27.3853L77.0874 32.752C77.0373 32.9678 77.0611 33.1944 77.1548 33.3949C77.2486 33.5954 77.4068 33.7579 77.6038 33.856V34.04H72.167V32.66C71.3489 33.1514 70.4708 33.5328 69.5548 33.7946C68.7018 34.0151 67.8231 34.1183 66.9427 34.1013C65.2115 34.1013 64.2092 33.9173 63.5106 33.304C62.812 32.6906 62.4779 32.2613 62.5082 31.4026C62.5658 30.815 62.7988 30.2589 63.1765 29.808C63.5736 29.3697 64.0608 29.0243 64.604 28.796C65.2894 28.4867 66.0159 28.28 66.7605 28.1826C67.7325 28.0293 69.0689 27.876 70.8609 27.7226C71.4622 27.664 72.054 27.5301 72.6226 27.324C72.987 27.1706 73.1389 27.0173 73.1996 26.7106C73.2604 26.404 73.1389 25.852 72.4099 25.6986C70.466 25.3 66.8213 25.944 64.9381 26.404L65.9404 23.644C68.3418 23.2584 70.7682 23.0534 73.1996 23.0306C77.0571 23.0613 78.3024 24.196 78.272 25.6066Z" fill="#878787"/>
    <path d="M15.0653 30.2067C13.6499 30.5264 12.2027 30.6808 10.7523 30.6667C8.2921 30.6667 6.31784 29.4401 6.43933 27.1401C6.50008 25.6374 8.2921 22.4481 12.7874 22.4481C14.2112 22.4148 15.6142 22.7982 16.827 23.5521L17.4648 19.8414C15.8439 19.1914 14.1042 18.8986 12.3621 18.9827C6.43933 19.0441 0.759527 21.7427 0.0609417 27.2627C-0.637644 32.7827 6.1356 34.2854 9.14256 34.2854C10.8738 34.2854 12.6962 34.1934 14.3668 34.0401L15.0653 30.2067Z" fill="#878787"/>
    <path d="M57.1625 23.276L57.527 21.0987L62.9335 19.9333L62.3564 23.276H65.0292L64.5129 25.4533H61.9311L60.3821 34.04H55.1275L56.7069 25.4533H54.7327L55.1275 23.3067H57.1625V23.276Z" fill="#878787"/>
    <path d="M83.5265 34.04H78.2416L80.9144 19.136L86.0475 19.2587L83.5265 34.04Z" fill="#878787"/>
    <path d="M40.3965 25.852C39.7303 25.8541 39.0818 26.0688 38.5438 26.4654C37.9924 26.9296 37.6345 27.5866 37.5414 28.3054C37.3592 29.256 37.4503 29.9 37.8148 30.3294C38.0271 30.5377 38.2795 30.6996 38.5565 30.8051C38.8334 30.9107 39.1289 30.9575 39.4246 30.9427C39.8848 30.9521 40.3414 30.8578 40.761 30.6667C41.1661 30.4776 41.5125 30.1807 41.7633 29.808C42.0474 29.3816 42.2437 28.9019 42.3404 28.3974C42.4923 27.5387 42.3708 26.9254 41.9759 26.496C41.7744 26.2798 41.5288 26.1103 41.2562 25.9992C40.9835 25.888 40.6902 25.8378 40.3965 25.852ZM30.9504 37.7507L33.4714 23.3987H38.0274L37.6629 25.2387C38.1619 24.6086 38.8243 24.1309 39.5765 23.8587C40.5127 23.4726 41.5115 23.2646 42.5227 23.2454C43.7072 23.2454 44.4362 23.3067 45.317 23.7667C46.1521 24.1898 46.8016 24.9112 47.1394 25.7907C47.4973 26.7177 47.5817 27.7296 47.3824 28.704C47.256 29.5407 46.9651 30.3434 46.527 31.0649C46.0888 31.7864 45.5122 32.4121 44.831 32.9054C43.4339 33.9174 42.1886 34.1934 40.3965 34.1934C39.8543 34.2034 39.3131 34.1416 38.7867 34.0094C38.4246 33.9298 38.0764 33.7954 37.7541 33.6107C37.4391 33.3813 37.1534 33.1135 36.9036 32.8134L36.0532 37.7507H30.9504Z" fill="#878787"/>
    <path d="M124.986 27.1706C124.956 26.312 124.53 25.7293 123.65 25.7293C121.524 25.7293 119.276 29.9306 118.881 31.6173C122.344 31.6173 125.077 29.532 124.986 27.1706ZM125.442 33.764L125.837 34.04C124.804 36.156 122.708 37.8733 120.217 37.8733C118.182 37.8733 116.542 36.524 116.451 33.9786C116.269 29.3786 120.552 25.116 124.014 25.116C125.502 25.116 126.9 25.7906 126.96 27.416C127.082 31.0653 122.009 32.1693 118.668 32.2306C118.559 32.6713 118.518 33.1265 118.547 33.58C118.608 35.1133 119.519 36.3706 121.372 36.3706C123.224 36.3706 124.622 35.052 125.442 33.764Z" fill="#878787"/>
    <path d="M104.666 27.048L105.851 26.9253C106.246 26.9253 106.58 27.0173 106.61 27.3853C106.641 27.7533 106.215 29.2253 106.124 29.624L105.304 33.212C105 34.684 104.636 36.2173 104.332 37.444H106.398L107.552 31.74C111.136 27.9986 112.503 26.772 113.323 26.772C113.413 26.7623 113.504 26.7731 113.589 26.8036C113.675 26.8341 113.752 26.8835 113.816 26.9482C113.881 27.0129 113.929 27.0912 113.96 27.1774C113.99 27.2637 114.001 27.3557 113.991 27.4466C114.021 28.0906 113.596 29.5933 113.475 30.0226L112.26 34.1626C112.017 35.1133 111.804 35.9413 111.834 36.5546C111.865 37.168 112.412 37.8733 113.201 37.8733C114.72 37.8733 115.844 36.2786 116.785 34.7146L116.512 34.1933C116.117 34.8066 115.236 36.1866 114.507 36.1866C114.295 36.1866 114.082 36.0333 114.082 35.6653C114.107 35.0917 114.209 34.5242 114.386 33.9786L115.722 29.1026C116.056 27.7533 116.239 26.8946 116.239 26.4346C116.239 25.9746 115.662 25.116 114.872 25.116C113.505 25.116 111.683 26.128 107.856 30.5746H107.795L108.281 28.3973C108.554 27.2013 108.797 25.9746 109.04 25.116C107.601 25.6323 106.13 26.0523 104.636 26.3733L104.666 27.048Z" fill="#878787"/>
  </g>
  <defs>
    <clipPath id="clip0_131_15545">
      <rect width="131" height="46" fill="white"/>
    </clipPath>
  </defs>
</svg>