<svg width="131" height="20" viewBox="0 0 131 20" fill="none" xmlns="http://www.w3.org/2000/svg">
<g id="Netskope svg" clip-path="url(#clip0_131_15572)">
<g id="Group">
<path id="Vector" d="M7.77359 5.5238C7.58165 5.95238 7.29374 6.38095 6.90986 6.7619C6.04612 7.57142 4.99044 7.90476 3.88678 7.95238L8.01352 11.9524C8.06151 10.9048 8.3974 9.85714 9.26114 9.04761C9.64502 8.66666 10.0769 8.42857 10.5567 8.19047C9.26114 7.7619 8.25345 6.7619 7.77359 5.5238Z" fill="#878787"/>
<path id="Vector_2" d="M6.86188 14.5714C8.4454 13.0476 8.4454 10.5714 6.86188 9.09525C5.27837 7.57144 2.73514 7.57144 1.15163 9.09525C-0.43189 10.6191 -0.43189 13.0952 1.15163 14.5714C2.73514 16.0952 5.27837 16.0952 6.86188 14.5714Z" fill="#878787"/>
<path id="Vector_3" d="M15.0194 1.23807C16.6029 2.76188 16.6029 5.23807 15.0194 6.71426C13.4359 8.23807 10.8927 8.23807 9.30916 6.71426C7.72564 5.19045 7.72564 2.71426 9.30916 1.23807C10.8927 -0.285738 13.4839 -0.285738 15.0194 1.23807Z" fill="#878787"/>
<path id="Vector_4" d="M31.3344 1.23807C29.7509 -0.285738 27.2076 -0.285738 25.6241 1.23807C24.8564 1.99998 24.4725 2.90474 24.4725 3.85712C24.4245 4.90474 24.0886 5.95236 23.2249 6.76188C22.841 7.14283 22.4091 7.42855 21.9293 7.61902C23.2249 8.0476 24.2326 9.0476 24.7124 10.2857C24.9044 9.85712 25.1923 9.42855 25.5761 9.0476C26.4399 8.23807 27.4956 7.90474 28.5992 7.85712C29.6069 7.85712 30.5666 7.42855 31.3344 6.71426C32.9179 5.19045 32.9179 2.76188 31.3344 1.23807ZM29.9428 5.38093C29.5589 5.76188 29.0311 5.95236 28.5033 5.95236C27.9274 5.95236 27.4476 5.76188 27.0637 5.38093C26.2479 4.61902 26.2479 3.33331 27.0637 2.57141C27.4476 2.19045 27.9754 1.99998 28.5033 1.99998C29.0791 1.99998 29.5589 2.19045 29.9428 2.57141C30.3267 2.95236 30.5186 3.47617 30.5186 3.95236C30.5666 4.52379 30.3747 4.99998 29.9428 5.38093Z" fill="#878787"/>
<path id="Vector_5" d="M23.1769 9.09525C24.7604 10.6191 24.7604 13.0952 23.1769 14.5714C21.5934 16.0952 19.0501 16.0952 17.4666 14.5714C15.8831 13.0476 15.8831 10.5714 17.4666 9.09525C19.0501 7.57144 21.6414 7.57144 23.1769 9.09525Z" fill="#878787"/>
<path id="Vector_6" d="M17.4667 6.76194C16.6029 5.95242 16.267 4.9048 16.219 3.85718L12.0443 7.85718C13.148 7.9048 14.2037 8.23813 15.0674 9.04765C15.9311 9.85718 16.267 10.9048 16.315 11.9524L20.4417 7.95242C19.3861 7.9048 18.2824 7.57146 17.4667 6.76194Z" fill="#878787"/>
<path id="Vector_7" d="M66.2678 15.8095C64.2044 15.8095 62.9568 14.619 62.9568 12.6667V0.857131C62.9568 0.380941 63.3407 0.0476074 63.8205 0.0476074C64.3004 0.0476074 64.6843 0.42856 64.6843 0.857131V4.85713H67.6594C68.0912 4.85713 68.4751 5.23808 68.4751 5.66665C68.4751 6.09523 68.0912 6.42856 67.6594 6.42856H64.6843V12.5714C64.6843 13.7143 65.2601 14.2381 66.4597 14.2381C66.8916 14.2381 67.1795 14.1428 67.3714 14.0952C67.4674 14.0476 67.5634 14.0476 67.6594 14.0476C68.0912 14.0476 68.4751 14.4286 68.4751 14.8095C68.4751 15.1428 68.2832 15.3809 67.8993 15.5238C67.4674 15.6667 66.9396 15.8095 66.2678 15.8095Z" fill="#878787"/>
<path id="Vector_8" d="M75.289 15.8095C73.8014 15.8095 72.1219 15.2381 70.9703 14.4286C70.8263 14.3333 70.6344 14.0476 70.6344 13.8095C70.6344 13.3809 71.0183 13 71.4981 13C71.6901 13 71.882 13.0476 72.026 13.1429C73.0817 13.9048 74.1853 14.2381 75.385 14.2381C76.6806 14.2381 77.5923 13.5714 77.5923 12.619V12.5714C77.5923 11.6667 76.6806 11.2857 75.0011 10.8095H74.9531H74.9051C73.2256 10.3333 71.1143 9.7619 71.1143 7.71428V7.66666C71.1143 5.85714 72.7458 4.5238 74.9531 4.5238C76.1047 4.5238 77.4483 4.85714 78.552 5.47618C78.8399 5.66666 78.9839 5.90476 78.9839 6.19047C78.9839 6.61904 78.6 6.99999 78.1201 6.99999C77.9282 6.99999 77.7842 6.95238 77.6403 6.85714C76.7285 6.33333 75.7688 6.04761 74.8571 6.04761C73.6095 6.04761 72.7937 6.61904 72.7937 7.5238V7.57142C72.7937 8.42857 73.8974 8.80952 75.5289 9.23809C76.9205 9.61904 79.2718 10.2381 79.2718 12.4286V12.4762C79.2718 14.3809 77.5923 15.8095 75.289 15.8095Z" fill="#878787"/>
<path id="Vector_9" d="M82.9666 15.7143C82.4868 15.7143 82.1029 15.381 82.1029 14.9048V0.857143C82.1029 0.380952 82.4868 0 82.9666 0C83.4465 0 83.8304 0.380952 83.8304 0.857143V14.8571C83.8304 15.3333 83.4465 15.7143 82.9666 15.7143Z" fill="#878787"/>
<path id="Vector_10" d="M98.9938 15.8572C95.7788 15.8572 93.2355 13.381 93.2355 10.1905V10.1429C93.2355 6.9524 95.7788 4.42859 99.0418 4.42859C102.257 4.42859 104.8 6.90478 104.8 10.0953V10.1429C104.848 13.3334 102.257 15.8572 98.9938 15.8572ZM98.9938 6.04764C96.7385 6.04764 95.011 7.80954 95.011 10.1429V10.1905C95.011 12.4762 96.7864 14.3334 99.0418 14.3334C101.297 14.3334 103.025 12.5714 103.025 10.2381V10.1905C103.025 7.85716 101.297 6.04764 98.9938 6.04764Z" fill="#878787"/>
<path id="Vector_11" d="M54.8952 15.8571C51.7282 15.8571 49.3289 13.4286 49.3289 10.1905V10.1429C49.3289 6.95239 51.6802 4.4762 54.7033 4.4762C57.7264 4.4762 59.8857 6.85715 59.8857 10.0952C59.8857 10.5238 59.5018 10.9048 59.022 10.9048H53.2637C52.7839 10.9048 52.448 10.5714 52.448 10.1429C52.448 9.71429 52.7839 9.38096 53.2637 9.38096H58.1102C57.8703 7.76191 56.8626 6.04762 54.6553 6.04762C52.8318 6.04762 51.3923 7.42858 51.1044 9.42858L51.0564 9.76191C51.0084 10.0952 51.0084 10.4286 51.0564 10.7143C51.2483 12.8095 52.8318 14.2857 54.8472 14.2857C56.0949 14.2857 57.1025 13.8571 58.0623 12.9524C58.2542 12.8095 58.4461 12.7143 58.6381 12.7143C59.1179 12.7143 59.5018 13.0476 59.5018 13.5238C59.5018 13.6667 59.4538 13.9048 59.2139 14.0952C58.0143 15.3333 56.7187 15.8571 54.8952 15.8571Z" fill="#878787"/>
<path id="Vector_12" d="M107.871 20C107.391 20 107.007 19.6667 107.007 19.1429V9.61907C107.007 6.47621 109.503 4.42859 112.478 4.42859C115.693 4.42859 118.236 6.90478 118.236 10.0953V10.1429C118.236 13.3334 115.693 15.8572 112.43 15.8572C110.942 15.8572 109.647 15.3334 108.687 14.381V19.1429C108.735 19.6667 108.399 20 107.871 20ZM108.735 10.6191C108.927 12.7143 110.366 14.1429 112.334 14.2381C112.382 14.2381 112.478 14.2381 112.526 14.2381C113.245 14.2381 113.869 14.0953 114.445 13.7619C114.493 13.7143 114.541 13.7143 114.637 13.6667C115.117 13.381 115.501 12.9524 115.789 12.4762C115.837 12.4286 115.837 12.381 115.885 12.3334C115.933 12.2381 116.029 12.0953 116.077 12C116.316 11.4286 116.46 10.8572 116.46 10.2381V10.1905C116.46 9.7143 116.364 9.19049 116.221 8.76192C116.173 8.61906 116.125 8.52383 116.077 8.38097C116.029 8.23811 115.981 8.14287 115.885 8.04764C115.501 7.42859 115.021 6.90478 114.397 6.57145C114.349 6.52383 114.301 6.52383 114.205 6.47621C114.109 6.42859 113.965 6.38097 113.821 6.33335C113.581 6.23811 113.293 6.19049 113.053 6.14287C112.91 6.14287 112.766 6.09526 112.67 6.09526C112.622 6.09526 112.526 6.09526 112.478 6.09526C110.414 6.09526 108.927 7.57145 108.735 9.7143V10.6191Z" fill="#878787"/>
<path id="Vector_13" d="M91.2681 15.7143C91.0282 15.7143 90.8363 15.619 90.6443 15.4762L85.3659 10.3333C85.03 10.0476 85.03 9.5714 85.318 9.23807V9.19045L90.1165 4.90473C90.2604 4.76188 90.4524 4.66664 90.6923 4.61902C90.9322 4.61902 91.1242 4.66664 91.3161 4.8095C91.7 5.09521 91.7 5.61902 91.4121 5.99997L91.3641 6.04759L87.0934 9.76188L91.796 14.3333C91.9879 14.4762 92.0359 14.7143 92.0359 14.9047C92.0359 15.1428 91.9399 15.3333 91.796 15.4762C91.7 15.619 91.5081 15.7143 91.2681 15.7143Z" fill="#878787"/>
<path id="Vector_14" d="M46.0179 15.8571C45.5381 15.8571 45.1542 15.4762 45.1542 15V9.23809C45.1542 7.23809 44.0026 6.04761 42.0831 6.04761C40.1637 6.04761 39.0121 7.23809 39.0121 9.23809V15C39.0121 15.4762 38.6282 15.8571 38.1483 15.8571C37.6685 15.8571 37.2846 15.5238 37.2846 15V9.09523C37.2846 6.28571 39.1081 4.5238 41.9392 4.5238H42.2271C45.0582 4.5238 46.8817 6.33333 46.8817 9.09523V15C46.8817 15.4762 46.5458 15.8571 46.0179 15.8571Z" fill="#878787"/>
<path id="Vector_15" d="M125.962 15.8571C122.794 15.8571 120.395 13.4286 120.395 10.1905V10.1429C120.395 6.95239 122.746 4.4762 125.77 4.4762C128.793 4.4762 130.952 6.85715 130.952 10.0952C130.952 10.5238 130.568 10.9048 130.088 10.9048H124.282C123.802 10.9048 123.466 10.5714 123.466 10.1429C123.466 9.71429 123.802 9.38096 124.282 9.38096H129.129C128.889 7.76191 127.881 6.04762 125.674 6.04762C123.85 6.04762 122.411 7.42858 122.123 9.42858L122.075 9.76191C122.027 10.0952 122.027 10.4286 122.075 10.7143C122.267 12.8095 123.85 14.2857 125.866 14.2857C127.113 14.2857 128.121 13.8571 129.081 12.9524C129.272 12.8095 129.464 12.7143 129.656 12.7143C130.136 12.7143 130.52 13.0476 130.52 13.5238C130.52 13.6667 130.472 13.9048 130.232 14.0952C129.081 15.3333 127.785 15.8571 125.962 15.8571Z" fill="#878787"/>
</g>
</g>
<defs>
<clipPath id="clip0_131_15572">
<rect width="131" height="20" fill="white"/>
</clipPath>
</defs>
</svg>
