<svg xmlns="http://www.w3.org/2000/svg" width="131" height="40" viewBox="0 0 131 40" fill="none">
  <g clip-path="url(#clip0_158_15094)">
    <path d="M31.7794 17.8204C25.5419 14.1436 15.2533 13.8055 9.29887 15.5993C8.34264 15.8872 7.33153 15.3514 7.04179 14.4023C6.75205 13.4528 7.29128 12.4498 8.24813 12.1613C15.0835 10.1016 26.446 10.4996 33.6268 14.7305C34.487 15.2372 34.7692 16.3397 34.2592 17.1922C33.749 18.0458 32.6373 18.3272 31.7794 17.8204ZM31.5751 23.2662C31.1377 23.9712 30.2092 24.192 29.5001 23.7595C24.2999 20.5866 16.3702 19.6675 10.218 21.5211C9.42018 21.7604 8.5775 21.3139 8.33525 20.5234C8.09477 19.7315 8.54482 18.8966 9.3412 18.6559C16.3693 16.539 25.1061 17.5643 31.0788 21.2076C31.7879 21.641 32.0111 22.5631 31.5751 23.2662ZM29.2073 28.4963C28.8598 29.0622 28.1171 29.2397 27.5492 28.8947C23.0051 26.1382 17.2856 25.5154 10.55 27.0427C9.90081 27.1904 9.254 26.7865 9.10588 26.1424C8.95724 25.4982 9.36242 24.8562 10.013 24.7092C17.384 23.0366 23.707 23.7565 28.8073 26.8501C29.376 27.1947 29.5551 27.9322 29.2073 28.4963ZM20.333 0.792919C9.64629 0.792919 0.982544 9.392 0.982544 19.9997C0.982544 30.6083 9.64629 39.2072 20.333 39.2072C31.0203 39.2072 39.6835 30.6083 39.6835 19.9997C39.6835 9.392 31.0203 0.792919 20.333 0.792919Z" fill="#878787"/>
    <path d="M53.6286 18.5244C50.2875 17.7336 49.6925 17.1784 49.6925 16.0125C49.6925 14.9104 50.7379 14.1691 52.2921 14.1691C53.7986 14.1691 55.2923 14.7322 56.8587 15.8914C56.9061 15.9265 56.9654 15.9404 57.0239 15.9313C57.0824 15.9226 57.1339 15.8909 57.1683 15.8427L58.7997 13.5602C58.8667 13.4664 58.8484 13.3365 58.7581 13.2648C56.894 11.7801 54.795 11.0583 52.3415 11.0583C48.7341 11.0583 46.2143 13.207 46.2143 16.2817C46.2143 19.5788 48.3879 20.7461 52.1442 21.6473C55.3413 22.3782 55.8808 22.9905 55.8808 24.0854C55.8808 25.2984 54.7897 26.0526 53.0338 26.0526C51.0838 26.0526 49.4929 25.4006 47.7134 23.8709C47.6693 23.8333 47.6088 23.8159 47.5528 23.8191C47.4941 23.8239 47.4403 23.851 47.4029 23.8957L45.5737 26.0565C45.497 26.1462 45.5067 26.2801 45.5952 26.3576C47.6658 28.1923 50.212 29.1615 52.9599 29.1615C56.8471 29.1615 59.3591 27.053 59.3591 23.79C59.3591 21.0323 57.6991 19.5071 53.6286 18.5244Z" fill="#878787"/>
    <path d="M70.9756 22.2205C70.9756 24.5492 69.5305 26.1741 67.4612 26.1741C65.4156 26.1741 63.8725 24.4754 63.8725 22.2205C63.8725 19.9659 65.4156 18.2669 67.4612 18.2669C69.4972 18.2669 70.9756 19.9292 70.9756 22.2205ZM68.1538 15.2537C66.4688 15.2537 65.0868 15.9125 63.9471 17.2622V15.743C63.9471 15.623 63.8492 15.5253 63.7283 15.5253H60.7369C60.6161 15.5253 60.5183 15.623 60.5183 15.743V32.6242C60.5183 32.7441 60.6161 32.8418 60.7369 32.8418H63.7283C63.8492 32.8418 63.9471 32.7441 63.9471 32.6242V27.2957C65.087 28.5654 66.4693 29.1856 68.1538 29.1856C71.2845 29.1856 74.4539 26.7934 74.4539 22.2205C74.4539 17.6466 71.2845 15.2537 68.1538 15.2537Z" fill="#878787"/>
    <path d="M82.5778 26.1985C80.4333 26.1985 78.8165 24.4881 78.8165 22.2204C78.8165 19.9432 80.3774 18.2907 82.5284 18.2907C84.6868 18.2907 86.3145 20.001 86.3145 22.2701C86.3145 24.5471 84.743 26.1985 82.5778 26.1985ZM82.5778 15.2537C78.5459 15.2537 75.3872 18.3354 75.3872 22.2701C75.3872 26.1622 78.5242 29.2115 82.5284 29.2115C86.5746 29.2115 89.7431 26.1402 89.7431 22.2204C89.7431 18.3138 86.5964 15.2537 82.5778 15.2537Z" fill="#878787"/>
    <path d="M98.3531 15.5252H95.0611V12.1844C95.0611 12.0644 94.9636 11.967 94.8427 11.967H91.8515C91.7305 11.967 91.632 12.0644 91.632 12.1844V15.5252H90.1936C90.073 15.5252 89.9757 15.6229 89.9757 15.7429V18.2949C89.9757 18.4148 90.073 18.5124 90.1936 18.5124H91.632V25.116C91.632 27.7846 92.9701 29.1376 95.6092 29.1376C96.6823 29.1376 97.5726 28.9176 98.4116 28.4454C98.4798 28.4076 98.5223 28.3346 98.5223 28.2571V25.8269C98.5223 25.7518 98.4827 25.6812 98.4183 25.6417C98.3531 25.6012 98.272 25.5991 98.2052 25.6319C97.629 25.9197 97.0718 26.0525 96.4491 26.0525C95.4895 26.0525 95.0611 25.6202 95.0611 24.6507V18.5124H98.3531C98.474 18.5124 98.5712 18.4148 98.5712 18.2949V15.7429C98.5712 15.6229 98.474 15.5252 98.3531 15.5252Z" fill="#878787"/>
    <path d="M109.823 15.5384V15.128C109.823 13.9209 110.289 13.3826 111.335 13.3826C111.958 13.3826 112.459 13.5056 113.02 13.6914C113.09 13.7129 113.162 13.7021 113.218 13.6611C113.276 13.62 113.308 13.5542 113.308 13.4845V10.9822C113.308 10.8865 113.246 10.8019 113.154 10.7739C112.561 10.5989 111.802 10.4191 110.667 10.4191C107.904 10.4191 106.443 11.9636 106.443 14.884V15.5125H105.006C104.885 15.5125 104.786 15.6099 104.786 15.7299V18.295C104.786 18.4148 104.885 18.5125 105.006 18.5125H106.443V28.6982C106.443 28.8182 106.541 28.9157 106.661 28.9157H109.653C109.774 28.9157 109.872 28.8182 109.872 28.6982V18.5125H112.665L116.944 28.6955C116.458 29.7654 115.981 29.9783 115.329 29.9783C114.801 29.9783 114.246 29.8221 113.679 29.5139C113.626 29.4847 113.563 29.4799 113.505 29.4976C113.448 29.5177 113.4 29.5597 113.375 29.615L112.361 31.823C112.313 31.9273 112.354 32.0499 112.455 32.104C113.514 32.673 114.47 32.9159 115.65 32.9159C117.859 32.9159 119.08 31.8944 120.157 29.1466L125.347 15.8347C125.373 15.7677 125.365 15.6923 125.324 15.6326C125.283 15.5739 125.216 15.5384 125.144 15.5384H122.03C121.936 15.5384 121.853 15.5971 121.822 15.684L118.632 24.7294L115.137 15.678C115.106 15.5939 115.024 15.5384 114.933 15.5384H109.823Z" fill="#878787"/>
    <path d="M103.173 15.5253H100.182C100.061 15.5253 99.9628 15.623 99.9628 15.7429V28.6982C99.9628 28.8182 100.061 28.9156 100.182 28.9156H103.173C103.294 28.9156 103.393 28.8182 103.393 28.6982V15.7429C103.393 15.623 103.294 15.5253 103.173 15.5253Z" fill="#878787"/>
    <path d="M101.693 9.62645C100.508 9.62645 99.5459 10.579 99.5459 11.7551C99.5459 12.9322 100.508 13.8856 101.693 13.8856C102.877 13.8856 103.838 12.9322 103.838 11.7551C103.838 10.579 102.877 9.62645 101.693 9.62645Z" fill="#878787"/>
    <path d="M128.024 16.8139H127.475V17.5077H128.024C128.297 17.5077 128.46 17.3748 128.46 17.1606C128.46 16.9349 128.297 16.8139 128.024 16.8139ZM128.379 17.8036L128.974 18.6313H128.472L127.936 17.8722H127.475V18.6313H127.055V16.4376H128.041C128.554 16.4376 128.892 16.6984 128.892 17.1373C128.892 17.4969 128.682 17.7166 128.379 17.8036ZM127.912 15.7078C126.834 15.7078 126.018 16.5585 126.018 17.6006C126.018 18.642 126.828 19.4815 127.901 19.4815C128.979 19.4815 129.796 18.6313 129.796 17.5887C129.796 16.5472 128.985 15.7078 127.912 15.7078ZM127.901 19.6906C126.717 19.6906 125.796 18.7467 125.796 17.6006C125.796 16.4543 126.729 15.4997 127.912 15.4997C129.096 15.4997 130.017 16.4436 130.017 17.5887C130.017 18.735 129.085 19.6906 127.901 19.6906Z" fill="#878787"/>
  </g>
  <defs>
    <clipPath id="clip0_158_15094">
      <rect width="131" height="39" fill="white" transform="translate(0 0.5)"/>
    </clipPath>
  </defs>
</svg>