<svg width="28" height="28" viewBox="0 0 28 28" fill="none" xmlns="http://www.w3.org/2000/svg">
<g id="vuesax/bold/card-send">
<g id="vuesax/bold/card-send_2">
<g id="card-send">
<path id="Vector" d="M23.2983 2.04163H19.8683C18.3867 2.04163 17.5 2.92829 17.5 4.40996V7.83996C17.5 9.32163 18.3867 10.2083 19.8683 10.2083H23.2983C24.78 10.2083 25.6667 9.32163 25.6667 7.83996V4.40996C25.6667 2.92829 24.78 2.04163 23.2983 2.04163ZM23.555 5.90329C23.415 6.04329 23.2283 6.11329 23.0417 6.11329C22.855 6.11329 22.6683 6.04329 22.5283 5.90329L22.3183 5.69329V8.30663C22.3183 8.71496 21.9917 9.04163 21.5833 9.04163C21.175 9.04163 20.8483 8.71496 20.8483 8.30663V5.69329L20.6383 5.90329C20.3583 6.18329 19.8917 6.18329 19.6117 5.90329C19.3317 5.62329 19.3317 5.15663 19.6117 4.87663L21.07 3.41829C21.1283 3.35996 21.21 3.31329 21.2917 3.27829C21.315 3.26663 21.3383 3.26663 21.3617 3.25496C21.42 3.23163 21.4783 3.21996 21.5483 3.21996C21.5717 3.21996 21.595 3.21996 21.6183 3.21996C21.7 3.21996 21.77 3.23163 21.8517 3.26663C21.8633 3.26663 21.8633 3.26663 21.875 3.26663C21.9567 3.30163 22.0267 3.34829 22.085 3.40663C22.0967 3.41829 22.0967 3.41829 22.1083 3.41829L23.5667 4.87663C23.8467 5.15663 23.8467 5.62329 23.555 5.90329Z" fill="#3366FF"/>
<path id="Vector_2" d="M2.33337 13.37V19.2034C2.33337 21.875 4.49171 24.0334 7.16337 24.0334H20.825C23.4967 24.0334 25.6667 21.8634 25.6667 19.1917V13.37C25.6667 12.5884 25.0367 11.9584 24.255 11.9584H3.74504C2.96337 11.9584 2.33337 12.5884 2.33337 13.37ZM9.33337 20.125H7.00004C6.52171 20.125 6.12504 19.7284 6.12504 19.25C6.12504 18.7717 6.52171 18.375 7.00004 18.375H9.33337C9.81171 18.375 10.2084 18.7717 10.2084 19.25C10.2084 19.7284 9.81171 20.125 9.33337 20.125ZM16.9167 20.125H12.25C11.7717 20.125 11.375 19.7284 11.375 19.25C11.375 18.7717 11.7717 18.375 12.25 18.375H16.9167C17.395 18.375 17.7917 18.7717 17.7917 19.25C17.7917 19.7284 17.395 20.125 16.9167 20.125Z" fill="#3366FF"/>
<path id="Vector_3" d="M15.75 5.37834V8.79667C15.75 9.57834 15.12 10.2083 14.3384 10.2083H3.74504C2.95171 10.2083 2.33337 9.55501 2.33337 8.77334C2.34504 7.45501 2.87004 6.25334 3.74504 5.37834C4.62004 4.50334 5.83337 3.96667 7.16337 3.96667H14.3384C15.12 3.96667 15.75 4.59667 15.75 5.37834Z" fill="#3366FF"/>
</g>
</g>
</g>
</svg>
