<svg xmlns="http://www.w3.org/2000/svg" width="240" height="196" viewBox="0 0 240 196" fill="none">
  <path d="M163 90C164.105 90 165.005 90.896 164.956 91.9995C164.562 100.841 161.569 109.387 156.329 116.555C150.695 124.263 142.755 129.979 133.658 132.877C124.561 135.775 114.778 135.704 105.724 132.675C96.6694 129.646 88.8131 123.816 83.2909 116.028C77.7687 108.239 74.8667 98.8963 75.0047 89.3497C75.1427 79.8032 78.3134 70.548 84.0584 62.9224C89.8033 55.2967 97.8248 49.696 106.963 46.9299C115.462 44.3573 124.517 44.3608 132.99 46.9156C134.047 47.2345 134.595 48.3804 134.23 49.4227L120.933 87.3382C120.477 88.6387 121.443 90 122.821 90H163Z" fill="#3366FF"/>
  <path d="M129.019 82.7951L141.827 48.7876C142.203 47.7873 143.303 47.2551 144.303 47.6329C161.95 54.3016 168.78 71.1702 169.445 83.5049C169.505 84.6079 168.605 85.5 167.5 85.5H130.89C129.493 85.5 128.526 84.103 129.019 82.7951Z" fill="#102693"/>
  <defs>
    <filter id="filter0_d_137_16474" x="0" y="0" width="240" height="196" filterUnits="userSpaceOnUse" color-interpolation-filters="sRGB">
      <feFlood flood-opacity="0" result="BackgroundImageFix"/>
      <feColorMatrix in="SourceAlpha" type="matrix" values="0 0 0 0 0 0 0 0 0 0 0 0 0 0 0 0 0 0 127 0" result="hardAlpha"/>
      <feOffset dy="8"/>
      <feGaussianBlur stdDeviation="16"/>
      <feComposite in2="hardAlpha" operator="out"/>
      <feColorMatrix type="matrix" values="0 0 0 0 0.117647 0 0 0 0 0.117647 0 0 0 0 0.117647 0 0 0 0.08 0"/>
      <feBlend mode="normal" in2="BackgroundImageFix" result="effect1_dropShadow_137_16474"/>
      <feBlend mode="normal" in="SourceGraphic" in2="effect1_dropShadow_137_16474" result="shape"/>
    </filter>
  </defs>
</svg>