<svg xmlns="http://www.w3.org/2000/svg" width="36" height="36" viewBox="0 0 36 36" fill="none">
    <path d="M27 3H9C6.51 3 4.5 4.995 4.5 7.455V23.82C4.5 26.28 6.51 28.275 9 28.275H10.14C11.34 28.275 12.48 28.74 13.32 29.58L15.885 32.115C17.055 33.27 18.96 33.27 20.13 32.115L22.695 29.58C23.535 28.74 24.69 28.275 25.875 28.275H27C29.49 28.275 31.5 26.28 31.5 23.82V7.455C31.5 4.995 29.49 3 27 3ZM25.02 15.75L23.265 21.09C23.04 21.975 22.095 22.695 21.135 22.695H18.36C17.88 22.695 17.205 22.53 16.905 22.23L14.7 20.505C14.655 21.465 14.22 21.87 13.155 21.87H12.435C11.325 21.87 10.875 21.435 10.875 20.385V13.23C10.875 12.18 11.325 11.745 12.435 11.745H13.17C14.28 11.745 14.73 12.18 14.73 13.23V13.77L17.64 9.45C17.94 8.985 18.705 8.655 19.35 8.91C20.055 9.15 20.505 9.93 20.355 10.62L19.995 12.96C19.95 13.155 19.995 13.365 20.13 13.5C20.25 13.635 20.43 13.725 20.625 13.725H23.55C24.12 13.725 24.6 13.95 24.885 14.355C25.155 14.745 25.2 15.24 25.02 15.75Z"
          fill="white"/>
</svg>