<svg xmlns="http://www.w3.org/2000/svg" width="36" height="36" viewBox="0 0 36 36" fill="none">
    <path d="M18 9.5625C18 14.2224 14.2995 18 9.7347 18H1.46939V9.5625C1.46939 4.90259 5.16989 1.125 9.7347 1.125C14.2995 1.125 18 4.90259 18 9.5625Z"
          fill="white"/>
    <path d="M18 26.4375C18 21.7776 21.7005 18 26.2653 18H34.5306V26.4375C34.5306 31.0974 30.8301 34.875 26.2653 34.875C21.7005 34.875 18 31.0974 18 26.4375Z"
          fill="white"/>
    <path d="M1.46939 26.4375C1.46939 31.0974 5.16989 34.875 9.7347 34.875H18V26.4375C18 21.7776 14.2995 18 9.7347 18C5.16989 18 1.46939 21.7776 1.46939 26.4375Z"
          fill="white"/>
    <path d="M34.5306 9.5625C34.5306 4.90259 30.8301 1.125 26.2653 1.125H18V9.5625C18 14.2224 21.7005 18 26.2653 18C30.8301 18 34.5306 14.2224 34.5306 9.5625Z"
          fill="white"/>
</svg>