<svg xmlns="http://www.w3.org/2000/svg" width="24" height="24" viewBox="0 0 24 24" fill="none">
  <path d="M17.49 9.60014L5.6 16.7701C4.9 17.1901 4 16.6901 4 15.8701V7.87014C4 4.38014 7.77 2.20014 10.8 3.94014L15.39 6.58014L17.48 7.78014C18.17 8.19014 18.18 9.19014 17.49 9.60014Z" fill="white"/>
  <path d="M18.09 15.4601L14.04 17.8001L9.99999 20.1301C8.54999 20.9601 6.90999 20.7901 5.71999 19.9501C5.13999 19.5501 5.20999 18.6601 5.81999 18.3001L18.53 10.6801C19.13 10.3201 19.92 10.6601 20.03 11.3501C20.28 12.9001 19.64 14.5701 18.09 15.4601Z" fill="white"/>
</svg>